# Blender v3.1.2 OBJ File: ''
# www.blender.org
mtllib stick.mtl
o stick
v -0.089188 -0.155563 -0.016113
v -0.110214 -0.153969 0.078766
v -0.115463 1.452244 0.042114
v -0.089920 1.450310 -0.073151
v -0.033463 -0.153511 0.145538
v -0.022263 1.452805 0.123260
v 0.064316 -0.154648 0.117493
v 0.096527 1.451424 0.089142
v 0.085358 -0.156235 0.022583
v 0.122086 1.449478 -0.026062
v 0.008606 -0.156704 -0.044220
v 0.028854 1.448921 -0.107178
v -0.102020 2.593327 0.001648
v -0.076447 2.591389 -0.113556
v -0.008789 2.593880 0.082733
v 0.109985 2.592499 0.048615
v 0.135529 2.590553 -0.066559
v 0.042313 2.590004 -0.147736
v -0.101379 3.735374 0.018983
v -0.075836 3.733437 -0.096190
v -0.008179 3.735943 0.100038
v 0.110580 3.734558 0.065980
v 0.136169 3.732605 -0.049193
v 0.042938 3.732052 -0.130340
v -0.097626 4.877197 0.022004
v -0.072037 4.875248 -0.093200
v -0.004364 4.877739 0.103150
v 0.114380 4.876366 0.069093
v 0.139938 4.874420 -0.046142
v 0.046722 4.873871 -0.127318
v -0.097015 6.019245 0.039369
v -0.071426 6.017311 -0.075866
v -0.003754 6.019787 0.120515
v 0.115005 6.018417 0.086396
v 0.140533 6.016487 -0.028808
v 0.047333 6.015923 -0.109954
v -0.083008 7.743431 0.028840
v -0.058563 7.758034 -0.081145
v 0.006104 7.735741 0.106263
v 0.119675 7.742645 0.073762
v 0.144104 7.757240 -0.036193
v 0.054993 7.764935 -0.113677
v -0.090042 8.871464 0.080384
v -0.065628 8.869621 -0.029754
v -0.000931 8.872002 0.157991
v 0.112640 8.870682 0.125367
v 0.137054 8.868820 0.015229
v 0.047928 8.868298 -0.062346
v -0.012436 -0.155098 0.050690
v 0.023499 8.870152 0.047883
vt 0.955310 0.977780
vt 0.957580 0.854990
vt 0.944630 0.853220
vt 0.956660 0.980280
vt 0.970790 0.858770
vt 0.955580 0.998040
vt 0.956680 0.986320
vt 0.953550 0.981630
vt 0.902260 0.856290
vt 0.953980 0.978650
vt 0.916160 0.855040
vt 0.930640 0.853260
vt 0.961250 0.727240
vt 0.947750 0.727070
vt 0.975360 0.727710
vt 0.983740 0.864580
vt 0.905850 0.727400
vt 0.919390 0.727240
vt 0.933580 0.727100
vt 0.947750 0.597630
vt 0.961230 0.597290
vt 0.989360 0.597440
vt 0.975300 0.597190
vt 0.919490 0.597780
vt 0.906020 0.597570
vt 0.933620 0.597850
vt 0.947270 0.467680
vt 0.960730 0.467310
vt 0.988910 0.467220
vt 0.974820 0.467100
vt 0.919080 0.467750
vt 0.905620 0.467440
vt 0.933160 0.467880
vt 0.947260 0.337620
vt 0.960740 0.337450
vt 0.988940 0.337410
vt 0.974860 0.337340
vt 0.919020 0.337250
vt 0.905560 0.336730
vt 0.933140 0.337600
vt 0.964030 0.141580
vt 0.951160 0.139670
vt 0.977540 0.142550
vt 0.911260 0.138700
vt 0.924190 0.138200
vt 0.937710 0.138290
vt 0.972540 0.014580
vt 0.960480 0.013200
vt 0.985150 0.014590
vt 0.991040 0.141880
vt 0.923460 0.007090
vt 0.935100 0.011170
vt 0.947530 0.013400
vt 0.956110 0.989320
vt 0.978990 0.004020
vt 0.998040 0.013750
vt 0.944410 0.001950
vt 0.989420 0.728470
vn -0.7281 -0.5597 -0.3958
vn -0.9497 0.0132 0.3127
vn -0.7284 -0.0201 -0.6848
vn -0.6271 -0.7534 0.1978
vn -0.2165 0.0261 0.9759
vn 0.4791 -0.7577 0.4431
vn -0.3537 -0.5424 0.7620
vn 0.6017 -0.7717 -0.2058
vn 0.7277 0.0078 0.6858
vn 0.1191 -0.7703 -0.6265
vn 0.9500 -0.0254 -0.3112
vn 0.2165 -0.0390 -0.9755
vn -0.9499 0.0090 0.3125
vn -0.7285 -0.0024 -0.6851
vn -0.2163 0.0112 0.9763
vn 0.7333 -0.0045 0.6799
vn 0.9475 -0.0161 -0.3192
vn 0.2164 -0.0113 -0.9763
vn -0.7285 0.0075 -0.6850
vn -0.9492 -0.0028 0.3146
vn 0.7281 -0.0075 0.6854
vn -0.2166 -0.0083 0.9762
vn 0.9499 0.0010 -0.3126
vn 0.2164 0.0083 -0.9763
vn -0.7283 0.0075 -0.6853
vn -0.9504 0.0008 0.3111
vn 0.7284 -0.0075 0.6851
vn -0.2167 -0.0084 0.9762
vn 0.9499 0.0010 -0.3127
vn 0.2167 0.0082 -0.9762
vn -0.7284 0.0071 -0.6852
vn -0.9490 -0.0001 0.3154
vn 0.7284 -0.0039 0.6851
vn -0.2164 -0.0026 0.9763
vn 0.9499 0.0005 -0.3127
vn 0.2167 0.0059 -0.9762
vn -0.9499 -0.0053 0.3125
vn -0.7286 0.0152 -0.6848
vn -0.2165 -0.0181 0.9761
vn 0.7328 -0.0190 0.6802
vn 0.9480 0.0013 -0.3181
vn 0.2159 0.0225 -0.9762
vn -0.6220 0.7584 0.1948
vn -0.4607 0.7651 -0.4498
vn -0.1414 0.7467 0.6500
vn 0.4585 0.5338 0.7105
vn 0.8371 0.5434 -0.0632
vn 0.3475 0.5658 -0.7478
vn -0.0072 -0.9999 0.0152
vn 0.0073 0.9999 -0.0152
usemtl blinn1SG
s 1
f 1/1/1 3/2/2 4/3/3
f 2/4/4 6/5/5 3/2/2
f 7/6/6 6/5/5 5/7/7
f 9/8/8 8/9/9 7/6/6
f 11/10/10 10/11/11 9/8/8
f 11/10/10 4/3/3 12/12/12
f 4/3/3 13/13/13 14/14/14
f 3/2/2 15/15/15 13/13/13
f 8/16/9 15/15/15 6/5/5
f 10/11/11 16/17/16 8/9/9
f 12/12/12 17/18/17 10/11/11
f 12/12/12 14/14/14 18/19/18
f 13/13/13 20/20/19 14/14/14
f 15/15/15 19/21/20 13/13/13
f 15/15/15 22/22/21 21/23/22
f 16/17/16 23/24/23 22/25/21
f 17/18/17 24/26/24 23/24/23
f 14/14/14 24/26/24 18/19/18
f 19/21/20 26/27/25 20/20/19
f 21/23/22 25/28/26 19/21/20
f 21/23/22 28/29/27 27/30/28
f 22/25/21 29/31/29 28/32/27
f 23/24/23 30/33/30 29/31/29
f 20/20/19 30/33/30 24/26/24
f 25/28/26 32/34/31 26/27/25
f 27/30/28 31/35/32 25/28/26
f 27/30/28 34/36/33 33/37/34
f 28/32/27 35/38/35 34/39/33
f 29/31/29 36/40/36 35/38/35
f 26/27/25 36/40/36 30/33/30
f 32/34/31 37/41/37 38/42/38
f 31/35/32 39/43/39 37/41/37
f 34/36/33 39/43/39 33/37/34
f 35/38/35 40/44/40 34/39/33
f 36/40/36 41/45/41 35/38/35
f 36/40/36 38/42/38 42/46/42
f 38/42/38 43/47/43 44/48/44
f 37/41/37 45/49/45 43/47/43
f 40/50/40 45/49/45 39/43/39
f 41/45/41 46/51/46 40/44/40
f 42/46/42 47/52/47 41/45/41
f 42/46/42 44/48/44 48/53/48
f 2/4/4 1/1/1 49/54/49
f 5/7/7 2/4/4 49/54/49
f 7/6/6 5/7/7 49/54/49
f 9/8/8 7/6/6 49/54/49
f 11/10/10 9/8/8 49/54/49
f 1/1/1 11/10/10 49/54/49
f 44/48/44 43/47/43 50/55/50
f 43/47/43 45/49/45 50/55/50
f 45/49/45 46/56/46 50/55/50
f 46/51/46 47/52/47 50/57/50
f 47/52/47 48/53/48 50/57/50
f 48/53/48 44/48/44 50/57/50
f 1/1/1 2/4/4 3/2/2
f 2/4/4 5/7/7 6/5/5
f 7/6/6 8/16/9 6/5/5
f 9/8/8 10/11/11 8/9/9
f 11/10/10 12/12/12 10/11/11
f 11/10/10 1/1/1 4/3/3
f 4/3/3 3/2/2 13/13/13
f 3/2/2 6/5/5 15/15/15
f 8/16/9 16/58/16 15/15/15
f 10/11/11 17/18/17 16/17/16
f 12/12/12 18/19/18 17/18/17
f 12/12/12 4/3/3 14/14/14
f 13/13/13 19/21/20 20/20/19
f 15/15/15 21/23/22 19/21/20
f 15/15/15 16/58/16 22/22/21
f 16/17/16 17/18/17 23/24/23
f 17/18/17 18/19/18 24/26/24
f 14/14/14 20/20/19 24/26/24
f 19/21/20 25/28/26 26/27/25
f 21/23/22 27/30/28 25/28/26
f 21/23/22 22/22/21 28/29/27
f 22/25/21 23/24/23 29/31/29
f 23/24/23 24/26/24 30/33/30
f 20/20/19 26/27/25 30/33/30
f 25/28/26 31/35/32 32/34/31
f 27/30/28 33/37/34 31/35/32
f 27/30/28 28/29/27 34/36/33
f 28/32/27 29/31/29 35/38/35
f 29/31/29 30/33/30 36/40/36
f 26/27/25 32/34/31 36/40/36
f 32/34/31 31/35/32 37/41/37
f 31/35/32 33/37/34 39/43/39
f 34/36/33 40/50/40 39/43/39
f 35/38/35 41/45/41 40/44/40
f 36/40/36 42/46/42 41/45/41
f 36/40/36 32/34/31 38/42/38
f 38/42/38 37/41/37 43/47/43
f 37/41/37 39/43/39 45/49/45
f 40/50/40 46/56/46 45/49/45
f 41/45/41 47/52/47 46/51/46
f 42/46/42 48/53/48 47/52/47
f 42/46/42 38/42/38 44/48/44
